<?xml version="1.0" encoding="UTF-8" standalone="no"?>
<!DOCTYPE svg PUBLIC "-//W3C//DTD SVG 1.1//EN" "http://www.w3.org/Graphics/SVG/1.1/DTD/svg11.dtd">
<svg width="175px" height="100%" viewBox="0 0 190 182" version="1.1" xmlns="http://www.w3.org/2000/svg" xmlns:xlink="http://www.w3.org/1999/xlink" xml:space="preserve" xmlns:serif="http://www.serif.com/" style="fill-rule:evenodd;clip-rule:evenodd;stroke-linejoin:round;stroke-miterlimit:2;">
    <g transform="matrix(1,0,0,1,-409.16,-294.066)">
        <g id="Color">
            <g transform="matrix(0.662755,-0.748836,0.748836,0.662755,-81.7921,546.89)">
                <path d="M578.05,331.714L584.966,331.714L584.966,343.81L581.508,339.322L578.05,343.81L578.05,331.714Z" style="fill:rgb(63,123,170);"/>
            </g>
            <g transform="matrix(-0.625132,-0.780519,0.780519,-0.625132,658.485,1026.14)">
                <path d="M578.05,331.714L584.966,331.714L584.966,343.81L581.508,339.322L578.05,343.81L578.05,331.714Z" style="fill:rgb(255,212,50);"/>
            </g>
            <g transform="matrix(1,0,0,1,-2,0)">
                <path d="M521.174,320.438C491.466,300.866 473.189,328.138 473.189,328.138L452.672,321.41L452.672,320.753C475.233,291.096 498.395,293.34 507.898,294.801C515.758,296.01 526.515,299.035 534.555,304.915C538.335,305.17 544.917,306.061 548.803,308.371C558.461,314.114 560.606,325.244 556.665,331.871C552.725,338.499 541.127,340.672 531.468,334.93C526.065,331.717 522.813,324.991 521.174,320.438Z" style="fill:rgb(63,123,170);"/>
            </g>
            <g transform="matrix(0.982642,-0.18551,-0.18551,-0.982642,70.1323,791.659)">
                <path d="M521.174,320.438C507.303,313.816 493.094,313.031 478.673,328.347C465.684,342.145 469.7,361.126 469.7,361.126L450.581,370.805C450.581,370.805 442.474,349.939 453.898,326.529C467.105,299.464 496.582,295.276 505.745,295.713C515.9,296.198 526.234,299.413 534.555,304.915C538.335,305.17 544.917,306.061 548.803,308.371C558.461,314.114 560.606,325.244 556.665,331.871C552.725,338.499 541.127,340.672 531.468,334.93C526.065,331.717 522.813,324.991 521.174,320.438Z" style="fill:rgb(255,212,50);"/>
            </g>
            <g transform="matrix(-0.64908,0.341596,-0.246781,-0.468918,1016.6,274.991)">
                <path d="M594.797,323.456C594.797,322.899 594.638,322.365 594.353,321.972C594.069,321.578 593.683,321.357 593.281,321.357C593.28,321.357 593.279,321.357 593.278,321.357C592.881,321.357 592.5,321.576 592.219,321.965C591.938,322.354 591.78,322.881 591.78,323.431C591.78,327.293 591.78,335.197 591.78,335.197L594.797,335.197L594.797,323.456Z" style="fill:white;"/>
            </g>
            <g transform="matrix(-0.305235,0.666952,-0.481829,-0.220512,883.279,7.91706)">
                <path d="M594.797,323.456C594.797,322.899 594.638,322.365 594.353,321.972C594.069,321.578 593.683,321.357 593.281,321.357C593.28,321.357 593.279,321.357 593.278,321.357C592.881,321.357 592.5,321.576 592.219,321.965C591.938,322.354 591.78,322.881 591.78,323.431C591.78,327.293 591.78,335.197 591.78,335.197L594.797,335.197L594.797,323.456Z" style="fill:white;"/>
            </g>
            <g transform="matrix(0.310274,0.664623,-0.480146,0.224152,519.363,-103.19)">
                <path d="M594.797,323.456C594.797,322.899 594.638,322.365 594.353,321.972C594.069,321.578 593.683,321.357 593.281,321.357C593.28,321.357 593.279,321.357 593.278,321.357C592.881,321.357 592.5,321.576 592.219,321.965C591.938,322.354 591.78,322.881 591.78,323.431C591.78,327.293 591.78,335.197 591.78,335.197L594.797,335.197L594.797,323.456Z" style="fill:white;"/>
            </g>
            <g transform="matrix(0.651647,0.336674,-0.243225,0.470772,246.238,17.2517)">
                <path d="M594.797,323.456C594.797,322.899 594.638,322.365 594.353,321.972C594.069,321.578 593.683,321.357 593.281,321.357C593.28,321.357 593.279,321.357 593.278,321.357C592.881,321.357 592.5,321.576 592.219,321.965C591.938,322.354 591.78,322.881 591.78,323.431C591.78,327.293 591.78,335.197 591.78,335.197L594.797,335.197L594.797,323.456Z" style="fill:white;"/>
            </g>
            <g transform="matrix(4.32215,0,0,4.32215,-1586.96,-1512.61)">
                <text x="460.389px" y="457.372px" style="font-family:'FiraCode-Regular', 'Fira Code', monospace;font-size:12px;fill:rgb(38,38,38);">i<tspan x="466.845px 473.301px 479.757px 486.213px " y="457.372px 457.372px 457.372px 457.372px ">stac</tspan></text>
                <text x="492.669px" y="457.372px" style="font-family:'FiraCode-Regular', 'Fira Code', monospace;font-size:12px;fill:rgb(63,123,170);">p</text>
                <text x="499.125px" y="457.372px" style="font-family:'FiraCode-Regular', 'Fira Code', monospace;font-size:12px;fill:rgb(255,212,50);">y</text>
            </g>
        </g>
    </g>
</svg>
